<mxfile host="app.diagrams.net" modified="2023-06-25T13:09:37.256Z" agent="Mozilla/5.0 (Windows NT 10.0; Win64; x64) AppleWebKit/537.36 (KHTML, like Gecko) Chrome/114.0.0.0 Safari/537.36" etag="Y2bP6fx54hGa4WIEIkWY" version="21.4.0" type="device">
  <diagram name="Página-1" id="f2KsuBedD29tI52NU1I8">
    <mxGraphModel dx="1912" dy="1000" grid="1" gridSize="10" guides="1" tooltips="1" connect="1" arrows="1" fold="1" page="1" pageScale="1" pageWidth="827" pageHeight="1169" math="0" shadow="0">
      <root>
        <mxCell id="0" />
        <mxCell id="1" parent="0" />
        <mxCell id="2uvB-ObOwGW641o-AZea-17" style="edgeStyle=orthogonalEdgeStyle;rounded=0;orthogonalLoop=1;jettySize=auto;html=1;entryX=0;entryY=0.5;entryDx=0;entryDy=0;" edge="1" parent="1" source="2uvB-ObOwGW641o-AZea-1" target="2uvB-ObOwGW641o-AZea-3">
          <mxGeometry relative="1" as="geometry" />
        </mxCell>
        <mxCell id="2uvB-ObOwGW641o-AZea-1" value="Main Loop" style="ellipse;whiteSpace=wrap;html=1;" vertex="1" parent="1">
          <mxGeometry x="80" y="40" width="90" height="60" as="geometry" />
        </mxCell>
        <mxCell id="2uvB-ObOwGW641o-AZea-18" style="edgeStyle=orthogonalEdgeStyle;rounded=0;orthogonalLoop=1;jettySize=auto;html=1;entryX=0;entryY=0.5;entryDx=0;entryDy=0;" edge="1" parent="1" source="2uvB-ObOwGW641o-AZea-3" target="2uvB-ObOwGW641o-AZea-6">
          <mxGeometry relative="1" as="geometry" />
        </mxCell>
        <mxCell id="2uvB-ObOwGW641o-AZea-3" value="Fazer as configurações dos registradores" style="rounded=0;whiteSpace=wrap;html=1;" vertex="1" parent="1">
          <mxGeometry x="220" y="40" width="120" height="60" as="geometry" />
        </mxCell>
        <mxCell id="2uvB-ObOwGW641o-AZea-96" value="" style="edgeStyle=orthogonalEdgeStyle;rounded=0;orthogonalLoop=1;jettySize=auto;html=1;" edge="1" parent="1" source="2uvB-ObOwGW641o-AZea-6" target="2uvB-ObOwGW641o-AZea-95">
          <mxGeometry relative="1" as="geometry" />
        </mxCell>
        <mxCell id="2uvB-ObOwGW641o-AZea-6" value="Realiza a leitura de luminosidade do ambiente e converte em lux" style="rounded=0;whiteSpace=wrap;html=1;" vertex="1" parent="1">
          <mxGeometry x="380" y="28.75" width="120" height="82.5" as="geometry" />
        </mxCell>
        <mxCell id="2uvB-ObOwGW641o-AZea-20" style="edgeStyle=orthogonalEdgeStyle;rounded=0;orthogonalLoop=1;jettySize=auto;html=1;entryX=0.5;entryY=0;entryDx=0;entryDy=0;" edge="1" parent="1" source="2uvB-ObOwGW641o-AZea-7" target="2uvB-ObOwGW641o-AZea-8">
          <mxGeometry relative="1" as="geometry" />
        </mxCell>
        <mxCell id="2uvB-ObOwGW641o-AZea-7" value="Compara a luminosidade atual com a desejada" style="rounded=0;whiteSpace=wrap;html=1;" vertex="1" parent="1">
          <mxGeometry x="585" y="156.25" width="110" height="72.5" as="geometry" />
        </mxCell>
        <mxCell id="2uvB-ObOwGW641o-AZea-11" style="edgeStyle=orthogonalEdgeStyle;rounded=0;orthogonalLoop=1;jettySize=auto;html=1;entryX=1;entryY=0.5;entryDx=0;entryDy=0;" edge="1" parent="1" source="2uvB-ObOwGW641o-AZea-8" target="2uvB-ObOwGW641o-AZea-9">
          <mxGeometry relative="1" as="geometry" />
        </mxCell>
        <mxCell id="2uvB-ObOwGW641o-AZea-12" value="SIM" style="edgeLabel;html=1;align=center;verticalAlign=middle;resizable=0;points=[];" vertex="1" connectable="0" parent="2uvB-ObOwGW641o-AZea-11">
          <mxGeometry x="0.7197" y="-2" relative="1" as="geometry">
            <mxPoint as="offset" />
          </mxGeometry>
        </mxCell>
        <mxCell id="2uvB-ObOwGW641o-AZea-98" value="" style="edgeStyle=orthogonalEdgeStyle;rounded=0;orthogonalLoop=1;jettySize=auto;html=1;" edge="1" parent="1" source="2uvB-ObOwGW641o-AZea-8" target="2uvB-ObOwGW641o-AZea-13">
          <mxGeometry relative="1" as="geometry">
            <Array as="points">
              <mxPoint x="640" y="480" />
              <mxPoint x="640" y="480" />
            </Array>
          </mxGeometry>
        </mxCell>
        <mxCell id="2uvB-ObOwGW641o-AZea-113" value="NÃO" style="edgeLabel;html=1;align=center;verticalAlign=middle;resizable=0;points=[];" vertex="1" connectable="0" parent="2uvB-ObOwGW641o-AZea-98">
          <mxGeometry x="0.2282" relative="1" as="geometry">
            <mxPoint as="offset" />
          </mxGeometry>
        </mxCell>
        <mxCell id="2uvB-ObOwGW641o-AZea-8" value="Se luminosidade atual&amp;lt;luminosidade desejada" style="rhombus;whiteSpace=wrap;html=1;" vertex="1" parent="1">
          <mxGeometry x="580" y="278.75" width="120" height="120" as="geometry" />
        </mxCell>
        <mxCell id="2uvB-ObOwGW641o-AZea-110" style="edgeStyle=orthogonalEdgeStyle;rounded=0;orthogonalLoop=1;jettySize=auto;html=1;entryX=1;entryY=0.5;entryDx=0;entryDy=0;" edge="1" parent="1" source="2uvB-ObOwGW641o-AZea-9" target="2uvB-ObOwGW641o-AZea-109">
          <mxGeometry relative="1" as="geometry" />
        </mxCell>
        <mxCell id="2uvB-ObOwGW641o-AZea-9" value="Aumentar gradualmente a potência da lâmpada usando PWM" style="rounded=0;whiteSpace=wrap;html=1;" vertex="1" parent="1">
          <mxGeometry x="354" y="298.75" width="120" height="80" as="geometry" />
        </mxCell>
        <mxCell id="2uvB-ObOwGW641o-AZea-114" style="edgeStyle=orthogonalEdgeStyle;rounded=0;orthogonalLoop=1;jettySize=auto;html=1;entryX=1;entryY=0.5;entryDx=0;entryDy=0;" edge="1" parent="1" source="2uvB-ObOwGW641o-AZea-13" target="2uvB-ObOwGW641o-AZea-109">
          <mxGeometry relative="1" as="geometry">
            <Array as="points">
              <mxPoint x="320" y="520" />
              <mxPoint x="320" y="339" />
            </Array>
          </mxGeometry>
        </mxCell>
        <mxCell id="2uvB-ObOwGW641o-AZea-13" value="Diminuir gradualmente a potência da lâmpada usando PWM" style="rounded=0;whiteSpace=wrap;html=1;" vertex="1" parent="1">
          <mxGeometry x="580" y="480" width="120" height="80" as="geometry" />
        </mxCell>
        <mxCell id="2uvB-ObOwGW641o-AZea-101" style="edgeStyle=orthogonalEdgeStyle;rounded=0;orthogonalLoop=1;jettySize=auto;html=1;entryX=0.5;entryY=0;entryDx=0;entryDy=0;" edge="1" parent="1" source="2uvB-ObOwGW641o-AZea-47" target="2uvB-ObOwGW641o-AZea-51">
          <mxGeometry relative="1" as="geometry" />
        </mxCell>
        <mxCell id="2uvB-ObOwGW641o-AZea-102" style="edgeStyle=orthogonalEdgeStyle;rounded=0;orthogonalLoop=1;jettySize=auto;html=1;entryX=0.5;entryY=0;entryDx=0;entryDy=0;" edge="1" parent="1" source="2uvB-ObOwGW641o-AZea-47" target="2uvB-ObOwGW641o-AZea-53">
          <mxGeometry relative="1" as="geometry" />
        </mxCell>
        <mxCell id="2uvB-ObOwGW641o-AZea-103" value="NÃO" style="edgeLabel;html=1;align=center;verticalAlign=middle;resizable=0;points=[];" vertex="1" connectable="0" parent="2uvB-ObOwGW641o-AZea-102">
          <mxGeometry x="-0.6876" relative="1" as="geometry">
            <mxPoint x="-2" y="-1" as="offset" />
          </mxGeometry>
        </mxCell>
        <mxCell id="2uvB-ObOwGW641o-AZea-105" style="edgeStyle=orthogonalEdgeStyle;rounded=0;orthogonalLoop=1;jettySize=auto;html=1;exitX=1;exitY=0.5;exitDx=0;exitDy=0;entryX=0;entryY=0.5;entryDx=0;entryDy=0;" edge="1" parent="1" source="2uvB-ObOwGW641o-AZea-47" target="2uvB-ObOwGW641o-AZea-104">
          <mxGeometry relative="1" as="geometry">
            <Array as="points">
              <mxPoint x="1280" y="174" />
              <mxPoint x="1280" y="174" />
            </Array>
          </mxGeometry>
        </mxCell>
        <mxCell id="2uvB-ObOwGW641o-AZea-106" value="SIM" style="edgeLabel;html=1;align=center;verticalAlign=middle;resizable=0;points=[];" vertex="1" connectable="0" parent="2uvB-ObOwGW641o-AZea-105">
          <mxGeometry x="-0.2398" y="3" relative="1" as="geometry">
            <mxPoint x="1" as="offset" />
          </mxGeometry>
        </mxCell>
        <mxCell id="2uvB-ObOwGW641o-AZea-47" value="Verifica se já estava no menu antes" style="rhombus;whiteSpace=wrap;html=1;" vertex="1" parent="1">
          <mxGeometry x="1070" y="117.5" width="120" height="112.5" as="geometry" />
        </mxCell>
        <mxCell id="2uvB-ObOwGW641o-AZea-48" style="edgeStyle=orthogonalEdgeStyle;rounded=0;orthogonalLoop=1;jettySize=auto;html=1;entryX=0.5;entryY=0;entryDx=0;entryDy=0;" edge="1" parent="1" source="2uvB-ObOwGW641o-AZea-49" target="2uvB-ObOwGW641o-AZea-47">
          <mxGeometry relative="1" as="geometry" />
        </mxCell>
        <mxCell id="2uvB-ObOwGW641o-AZea-49" value="Setup Loop" style="ellipse;whiteSpace=wrap;html=1;" vertex="1" parent="1">
          <mxGeometry x="1083.75" y="28.75" width="90" height="40" as="geometry" />
        </mxCell>
        <mxCell id="2uvB-ObOwGW641o-AZea-50" value="" style="edgeStyle=orthogonalEdgeStyle;rounded=0;orthogonalLoop=1;jettySize=auto;html=1;" edge="1" parent="1" source="2uvB-ObOwGW641o-AZea-51" target="2uvB-ObOwGW641o-AZea-55">
          <mxGeometry relative="1" as="geometry" />
        </mxCell>
        <mxCell id="2uvB-ObOwGW641o-AZea-51" value="botão &quot;+&quot; pressionado&amp;nbsp;" style="shape=parallelogram;perimeter=parallelogramPerimeter;whiteSpace=wrap;html=1;fixedSize=1;" vertex="1" parent="1">
          <mxGeometry x="937.5" y="278.75" width="150" height="50" as="geometry" />
        </mxCell>
        <mxCell id="2uvB-ObOwGW641o-AZea-52" value="" style="edgeStyle=orthogonalEdgeStyle;rounded=0;orthogonalLoop=1;jettySize=auto;html=1;" edge="1" parent="1" source="2uvB-ObOwGW641o-AZea-53" target="2uvB-ObOwGW641o-AZea-57">
          <mxGeometry relative="1" as="geometry" />
        </mxCell>
        <mxCell id="2uvB-ObOwGW641o-AZea-53" value="botão &quot;-&quot; pressionado" style="shape=parallelogram;perimeter=parallelogramPerimeter;whiteSpace=wrap;html=1;fixedSize=1;" vertex="1" parent="1">
          <mxGeometry x="1183.75" y="278.75" width="150" height="50" as="geometry" />
        </mxCell>
        <mxCell id="2uvB-ObOwGW641o-AZea-54" style="edgeStyle=orthogonalEdgeStyle;rounded=0;orthogonalLoop=1;jettySize=auto;html=1;entryX=0.5;entryY=0;entryDx=0;entryDy=0;" edge="1" parent="1" source="2uvB-ObOwGW641o-AZea-55" target="2uvB-ObOwGW641o-AZea-59">
          <mxGeometry relative="1" as="geometry" />
        </mxCell>
        <mxCell id="2uvB-ObOwGW641o-AZea-55" value="Aumentar a luminosidade desejada" style="rounded=0;whiteSpace=wrap;html=1;" vertex="1" parent="1">
          <mxGeometry x="965" y="378.75" width="95" height="60" as="geometry" />
        </mxCell>
        <mxCell id="2uvB-ObOwGW641o-AZea-56" style="edgeStyle=orthogonalEdgeStyle;rounded=0;orthogonalLoop=1;jettySize=auto;html=1;exitX=0;exitY=0.5;exitDx=0;exitDy=0;entryX=0.5;entryY=0;entryDx=0;entryDy=0;" edge="1" parent="1" source="2uvB-ObOwGW641o-AZea-57" target="2uvB-ObOwGW641o-AZea-59">
          <mxGeometry relative="1" as="geometry" />
        </mxCell>
        <mxCell id="2uvB-ObOwGW641o-AZea-57" value="Diminuir a luminosidade deseja" style="rounded=0;whiteSpace=wrap;html=1;" vertex="1" parent="1">
          <mxGeometry x="1210" y="378.75" width="97.5" height="60" as="geometry" />
        </mxCell>
        <mxCell id="2uvB-ObOwGW641o-AZea-108" style="edgeStyle=orthogonalEdgeStyle;rounded=0;orthogonalLoop=1;jettySize=auto;html=1;entryX=0;entryY=0.5;entryDx=0;entryDy=0;" edge="1" parent="1" source="2uvB-ObOwGW641o-AZea-59" target="2uvB-ObOwGW641o-AZea-49">
          <mxGeometry relative="1" as="geometry">
            <Array as="points">
              <mxPoint x="920" y="488.75" />
              <mxPoint x="920" y="49" />
            </Array>
          </mxGeometry>
        </mxCell>
        <mxCell id="2uvB-ObOwGW641o-AZea-59" value="Atualiza a informação da luminosidade desejada" style="ellipse;whiteSpace=wrap;html=1;" vertex="1" parent="1">
          <mxGeometry x="1083.75" y="448.75" width="96.25" height="80" as="geometry" />
        </mxCell>
        <mxCell id="2uvB-ObOwGW641o-AZea-97" value="" style="edgeStyle=orthogonalEdgeStyle;rounded=0;orthogonalLoop=1;jettySize=auto;html=1;" edge="1" parent="1" source="2uvB-ObOwGW641o-AZea-95" target="2uvB-ObOwGW641o-AZea-7">
          <mxGeometry relative="1" as="geometry" />
        </mxCell>
        <mxCell id="2uvB-ObOwGW641o-AZea-95" value="Mostra luminosidade atual no display" style="rounded=0;whiteSpace=wrap;html=1;" vertex="1" parent="1">
          <mxGeometry x="580" y="40" width="120" height="60" as="geometry" />
        </mxCell>
        <mxCell id="2uvB-ObOwGW641o-AZea-104" value="Fim do Setup Loop" style="ellipse;whiteSpace=wrap;html=1;" vertex="1" parent="1">
          <mxGeometry x="1307.5" y="140.62" width="90" height="66.25" as="geometry" />
        </mxCell>
        <mxCell id="2uvB-ObOwGW641o-AZea-115" style="edgeStyle=orthogonalEdgeStyle;rounded=0;orthogonalLoop=1;jettySize=auto;html=1;exitX=0;exitY=0.5;exitDx=0;exitDy=0;entryX=0.5;entryY=1;entryDx=0;entryDy=0;" edge="1" parent="1" source="2uvB-ObOwGW641o-AZea-109" target="2uvB-ObOwGW641o-AZea-1">
          <mxGeometry relative="1" as="geometry" />
        </mxCell>
        <mxCell id="2uvB-ObOwGW641o-AZea-109" value="Atualiza os LEDs de acordo com a % da lâmpada" style="rounded=0;whiteSpace=wrap;html=1;" vertex="1" parent="1">
          <mxGeometry x="150" y="308.75" width="120" height="60" as="geometry" />
        </mxCell>
      </root>
    </mxGraphModel>
  </diagram>
</mxfile>
